<?xml version="1.0" encoding="UTF-8"?>
<svg id="Anya" xmlns="http://www.w3.org/2000/svg" viewBox="0 0 120 120">
  <defs>
    <style>
      .cls-1, .cls-2, .cls-3, .cls-4, .cls-5, .cls-6, .cls-7 {
        stroke: #363636;
      }

      .cls-1, .cls-2, .cls-3, .cls-5, .cls-6, .cls-7 {
        stroke-linecap: round;
      }

      .cls-1, .cls-2, .cls-3, .cls-6, .cls-8 {
        fill: none;
      }

      .cls-1, .cls-3, .cls-5, .cls-7, .cls-8 {
        stroke-linejoin: round;
      }

      .cls-9 {
        fill: #fff;
      }

      .cls-2, .cls-3 {
        stroke-width: 3px;
      }

      .cls-2, .cls-4, .cls-6 {
        stroke-miterlimit: 10;
      }

      .cls-10 {
        fill: #cf9565;
      }

      .cls-4, .cls-5 {
        fill: #504d60;
      }

      .cls-11 {
        fill: #ded5be;
      }

      .cls-5 {
        stroke-width: 2px;
      }

      .cls-7 {
        fill: #ecd4a8;
      }

      .cls-8 {
        stroke: #c9d396;
      }
    </style>
  </defs>
  <path class="cls-5" d="M41.83,10.69c8.29-.02,25.16.02,33.36.04,3,0,5.85,1.26,7.9,3.46l17.39,18.71c2.72,2.93,4.09,6.87,3.77,10.85l-2.73,34.2,14.52,17.47s-13.71-.4-13.98,0,3.76,13.98,3.76,13.98l-29.3,3.49,9.95-14.25-5.65-5.91-24.46,11.83-14.38-8.33-8.2,2.96v9.95l-22.98-10.62,2.42-5.78-6.72-4.17,8.33-8.6-2.27-29.58c-.36-4.67,1.03-9.3,3.89-13l17.66-22.88c1.85-2.39,4.69-3.8,7.72-3.81Z"/>
  <path class="cls-7" d="M42.26,28.75l4.17,29.57,12.23-26.61,6.72,10.35,1.75-8.06,14.11,22.04-9.95,14.52-8.2-.87,9.95,10.01,23.25-23.66s6.32,6.2-1.08,13.65c-6.72,5.17-9.81,1.94-9.81,1.94,0,0-7.39,10.75-20.56,11.02s-22.04,1.75-32.26-4.17c2.15-3.63,3.76-8.06,3.76-8.06l-8.74,1.75-2.39-3.9c-1.34-2.2-1.97-4.76-1.79-7.34.5-7.17,1.66-21.73,2.96-24.24,4.97-4.7,6.59-6.18,6.59-6.18l-2.28,12.77,11.56-14.52Z"/>
  <path id="Turtle_Nec_k" data-name="Turtle Nec k" class="cls-11" d="M43.12,83.7s12.91-1.47,31.89-1.17c.88.59-2.05,5.77-2.05,5.77l8.17,4.21-24.76,12.17-14.36-8.84,4.34-3.13-3.23-9Z"/>
  <path class="cls-10" d="M43.03,84.3l1.94,4.41s4.16,2.05,9.57,2.05,19.35-4.35,19.35-4.35l1.12-2.68s-18,3.52-20.87,3.51-10.89-2.1-11.12-2.94Z"/>
  <path class="cls-10" d="M45.82,91.1s6.43,3.57,9.57,3.64,18.08-6.29,18.08-6.29l2.36,1.21s-18.29,9.06-19.66,9.06-11.03-5.25-11.03-5.25l1.12-1.16-.43-1.2Z"/>
  <path class="cls-8" d="M43.71,84.04c4.23.95,7.69,1.16,10.04,1.17,2.73.02,4.56-.22,12.26-1.17,4.42-.55,7.8-.96,9.16-1.13"/>
  <path class="cls-8" d="M45.43,90.14c3.86,2.23,7.12,2.69,9.04,2.77,3.17.14,5.79-.67,10.89-2.28,3.36-1.06,6.07-2.13,7.91-2.9"/>
  <path class="cls-8" d="M43.51,94.28c1.59,1.68,12.49,6.68,12.49,6.68,0,0,10.99-3.94,21.88-10.13"/>
  <path id="Turtle_Nec_k-2" data-name="Turtle Nec k" class="cls-1" d="M43.12,83.59s12.91-1.47,31.89-1.17c.88.59-2.05,5.77-2.05,5.77l8.17,4.21-24.76,12.17-14.36-8.84,4.34-3.13-3.23-9Z"/>
  <polygon class="cls-9" points="58.12 52.88 75.54 56.91 74.75 63.89 68.17 65.52 58.51 61.78 58.12 52.88"/>
  <polygon class="cls-9" points="27.28 58.74 27.28 63.89 35.49 65.13 42.67 61.28 42.48 51.75 27.28 58.74"/>
  <path class="cls-4" d="M33.76,55.98c.88-.5,8.25-3.83,8.25-3.83v9.29l-6.87,3.38c-.48.24-1.04-.1-1.06-.63l-.31-8.21Z"/>
  <polygon class="cls-4" points="64.58 54.96 64.58 63.94 68.49 65 74.49 63.57 75.14 56.26 64.58 54.96"/>
  <line class="cls-3" x1="56.92" y1="52.48" x2="77.26" y2="57.08"/>
  <line class="cls-2" x1="41.99" y1="51.89" x2="25.91" y2="58.45"/>
  <path class="cls-6" d="M43.03,60.89l-6.58,3.71c-.68.38-1.46.54-2.24.45l-6.53-.74"/>
  <path class="cls-6" d="M58.58,61.78l8.61,3.09c.58.21,1.2.24,1.79.09l5.51-1.4"/>
  <path class="cls-2" d="M58.09,38.98l1.99,3.36c.75,1.27,2.06,2.1,3.53,2.25l7.4.74"/>
  <path class="cls-2" d="M39.41,38.98v.83c0,1.86-1.14,3.53-2.88,4.2l-5.73,2.21"/>
  <path class="cls-1" d="M43.03,73.28l4.38-1.43c.77-.25,1.61-.24,2.38.05l4.36,1.64"/>
  <path class="cls-1" d="M32.58,78.48l-8.62,1.86c-.22.4-1.87-1.02-2.27-1.25l-4.81-8.65c-.26-.15-.42-.44-.4-.75l5.47-33.94"/>
  <line class="cls-1" x1="81.24" y1="56.03" x2="77.88" y2="28.75"/>
  <line class="cls-1" x1="95.7" y1="56.63" x2="94.1" y2="34.12"/>
</svg>