<?xml version="1.0" encoding="UTF-8"?>
<svg id="Spicy_Curly" data-name="Spicy Curly" xmlns="http://www.w3.org/2000/svg" viewBox="0 0 120 120">
  <defs>
    <style>
      .cls-1, .cls-2, .cls-3, .cls-4, .cls-5, .cls-6, .cls-7, .cls-8, .cls-9, .cls-10 {
        stroke: #461c1e;
      }

      .cls-1, .cls-2, .cls-3, .cls-4, .cls-5, .cls-6, .cls-7, .cls-8, .cls-10 {
        stroke-miterlimit: 10;
      }

      .cls-1, .cls-5, .cls-6, .cls-7, .cls-8, .cls-10 {
        stroke-width: 2px;
      }

      .cls-1, .cls-11 {
        fill: #461c1e;
      }

      .cls-2, .cls-12, .cls-6 {
        fill: #f2dcce;
      }

      .cls-3 {
        fill: #eee1d1;
      }

      .cls-4, .cls-9, .cls-10 {
        fill: none;
      }

      .cls-5 {
        fill: #a54149;
      }

      .cls-7 {
        fill: #a54149;
      }

      .cls-8 {
        fill: #506689;
      }

      .cls-9 {
        stroke-linecap: round;
        stroke-linejoin: round;
      }
    </style>
  </defs>
  <g id="Curly_Trace" data-name="Curly Trace">
    <path class="cls-5" d="M50.53,94.09s-.14,1.58.17,2.28c0,0-11.78,4.35-11.86,5.86-.2,3.63,10.39,8.04,20.06,8.49,12.1.57,24.88-4.96,24.6-8.93-.1-1.49-12.3-5.71-12.3-5.71.43-.72.49-2.23.49-2.23,0,0-4.63.66-10.37.71-5.94.06-10.79-.47-10.79-.47Z"/>
    <path class="cls-7" d="M55.24,24.06h9.96c15.68,0,28.41,12.73,28.41,28.41v20.04c0,11.38-9.24,20.62-20.62,20.62h-25.54c-11.38,0-20.62-9.24-20.62-20.62v-20.04c0-15.68,12.73-28.41,28.41-28.41Z"/>
    <path class="cls-2" d="M27.67,44.43l63.28,34.15c.84.45,1.07,1.55.48,2.3l-5.27,6.69c-.47.59-1.29.76-1.95.39l-57.11-31.73c-.52-.29-.82-.84-.79-1.43.17-2.8.7-10.73,1.37-10.37Z"/>
    <path class="cls-6" d="M87.09,69.59c.38-.99.59-2.05.59-3.17v-7.67c0-4.92-4.03-8.95-8.95-8.95h-5.05c-4.92,0-8.95,4.03-8.95,8.95v7.67c0,4.92,4.03,8.95,8.95,8.95h4.52c.39,2.85,2.85,5.07,5.81,5.07,3.23,0,5.87-2.64,5.87-5.87,0-2.1-1.12-3.95-2.79-4.98Z"/>
    <rect class="cls-8" x="69.93" y="54.72" width="10.55" height="10.55" rx="3.66" ry="3.66" transform="translate(40.08 -29.57) rotate(30)"/>
    <path class="cls-2" d="M57.6,60.44s3.1-4.63,3.84-6.48c1.01-2.51,4.9-6.65,7.2-8.08,4.75-2.93,20.78-8.18,20.78-8.18,0,0-11.23-15.23-26.3-15.12-15.07.11-24.82.75-35.14,20.92,8.69,5.78,29.62,16.94,29.62,16.94Z"/>
    <path class="cls-2" d="M51.64,69.87l-2.89,3.63c-2.58,3.25-3.27,7.61-1.81,11.5l3.1,8.28s-20.46.2-22.83-15.48c-1.66-10.95-.96-22.04-.96-22.04l25.39,14.11Z"/>
    <g>
      <path class="cls-12" d="M51.64,93.55l.87-13.11h14.04l6.38,11.25c.51.9-.05,2.02-1.07,2.16-4.68.62-15.82,1.79-20.22-.3Z"/>
      <path class="cls-11" d="M50.78,94.06c.43-4.74.99-9.36,1.57-13.81,0,0,.16.01.16.01,0,0,14.04-.81,14.04-.81l.52-.03.35.54s4.46,7.87,4.46,7.87c.51.95,1.47,2.54,1.97,3.48.82,1.44-.3,3.44-1.91,3.55-5.29.65-10.67,1.17-16.01.71-1.76-.24-3.67-.38-5.15-1.51h0ZM52.51,93.05c.29-.1.15-.15.49-.05,5.36,1.34,11,.64,16.46.15,0,0,2.23-.27,2.23-.27.37-.03.53-.38.39-.66,0,0-.25-.45-.25-.45-1.14-2-4.94-8.71-6.14-10.82,0,0,.87.51.87.51,0,0-14.04-.81-14.04-.81,0,0,.19-.17.19-.17-.01,4.36-.04,8.52-.19,12.59h0Z"/>
    </g>
    <line class="cls-10" x1="52.08" y1="86.99" x2="70.07" y2="86.99"/>
    <line class="cls-10" x1="55.05" y1="80.11" x2="55.05" y2="94.53"/>
    <line class="cls-10" x1="62.39" y1="80.99" x2="62.39" y2="94.53"/>
    <line class="cls-10" x1="67.81" y1="82.66" x2="67.81" y2="94.53"/>
    <line class="cls-4" x1="31.3" y1="36.7" x2="61.44" y2="53.96"/>
    <path class="cls-4" d="M82.11,28.78c-3.95.72-11.39,2.62-18.77,8.3-5.7,4.39-8.72,8.53-10.6,11.74"/>
    <path class="cls-2" d="M68,33.96c-3.13-2.13-6.9-4.37-11.3-6.45-3.41-1.61-5.87-2.6-8.81-3.57"/>
    <line class="cls-4" x1="75.21" y1="24.95" x2="73.13" y2="31.42"/>
    <line class="cls-4" x1="42.4" y1="64.73" x2="29.49" y2="84.02"/>
    <path class="cls-4" d="M46.52,77.82s-4.57,6.84-4.59,6.87c-.02.03-3.71,6.2-3.72,6.22"/>
    <path class="cls-3" d="M71.2,96.07l-15.65,13.9c2.73.47,6.63.83,11.23.26,4.96-.62,8.88-2.1,11.49-3.32l-.38-8.55-6.7-2.28Z"/>
    <line class="cls-3" x1="75.21" y1="96.57" x2="66.05" y2="110.31"/>
    <circle class="cls-1" cx="75.21" cy="59.57" r=".43"/>
    <line class="cls-9" x1="66.92" y1="70.72" x2="70.63" y2="66.28"/>
    <line class="cls-9" x1="70.63" y1="74.83" x2="73.13" y2="68.96"/>
    <line class="cls-9" x1="87.01" y1="67.07" x2="81.34" y2="64.59"/>
    <line class="cls-9" x1="87.69" y1="58.75" x2="84.18" y2="59.14"/>
    <line class="cls-9" x1="82.97" y1="52.07" x2="82.11" y2="53.11"/>
    <line class="cls-9" x1="70.63" y1="51.29" x2="72.54" y2="52.59"/>
    <line class="cls-9" x1="65.73" y1="55.07" x2="67.81" y2="56.77"/>
    <line class="cls-9" x1="65.49" y1="63.52" x2="67.84" y2="62.38"/>
    <line class="cls-9" x1="65.49" y1="66.81" x2="67.84" y2="64.98"/>
    <line class="cls-9" x1="77.31" y1="69.03" x2="78.28" y2="74.38"/>
  </g>
</svg>