<?xml version="1.0" encoding="UTF-8"?>
<svg id="Jimmy" xmlns="http://www.w3.org/2000/svg" viewBox="0 0 120 120">
  <defs>
    <style>
      .cls-1, .cls-2, .cls-3, .cls-4, .cls-5, .cls-6, .cls-7, .cls-8, .cls-9 {
        stroke: #363636;
      }

      .cls-1, .cls-2, .cls-4, .cls-5, .cls-7, .cls-9 {
        stroke-linecap: round;
        stroke-linejoin: round;
      }

      .cls-1, .cls-6, .cls-8 {
        fill: none;
      }

      .cls-2, .cls-4 {
        fill: #645250;
      }

      .cls-10, .cls-5 {
        fill: #363636;
      }

      .cls-3, .cls-4, .cls-8 {
        stroke-width: 2px;
      }

      .cls-3, .cls-11 {
        fill: #f1f2f2;
      }

      .cls-3, .cls-6, .cls-12 {
        stroke-linecap: square;
      }

      .cls-3, .cls-6, .cls-12, .cls-8 {
        stroke-miterlimit: 10;
      }

      .cls-13 {
        fill: #a38b68;
      }

      .cls-7 {
        fill: #495563;
      }

      .cls-12 {
        fill: #453832;
        stroke: #453832;
      }

      .cls-9 {
        fill: #efd2a8;
      }
    </style>
  </defs>
  <path class="cls-4" d="M49.3,16.95l6.36-4.23s.06-.02.09-.01l16.71,6.14s.02,0,.03,0h6.78s.06.02.08.04l27.74,38.81c.05.07-.01.17-.1.15l-3.89-.84c-.07-.02-.13.05-.12.12l4.21,17.33c.02.08-.07.15-.14.11l-7.01-3.75c-.09-.05-.18.04-.14.13,1.04,1.87,5.77,12.1-13.33,14.45-.06,0-.1.07-.08.13,2.18,5.48,3.69,11.91,3.94,13.01.02.07-.05.14-.13.11l-9.99-3.11c-.08-.02-.15.05-.12.13l2.86,8.59s0,.1-.05.12l-9.41,4.37s-.05.01-.08,0l-4.88-1.85s-.06,0-.08,0l-8.51,4.65s-.06.02-.08,0l-9.59-3.73s-.05,0-.07,0l-7.03,2.55s-.07,0-.1-.02l-7.31-5.75s-.04-.02-.06-.02h-2.77c-.07,0-.12-.07-.09-.14l4.05-9.14c.03-.06,0-.13-.07-.14l-9.9-1.95c-.08-.02-.11-.11-.05-.17l6.63-6.63s.04-.11,0-.15l-2-1.53c-2.44-1.86-5.33-3.09-8.39-3.36-3.8-.33-9.06-2.86-7.92-14.69,0-.09-.09-.14-.16-.09-7.86,5.47-7.06,2.83-7.06,2.83l14.2-25.09c.05-.08-.04-.18-.13-.14l-6.81,3.34c-.1.05-.19-.08-.11-.16l31.86-31.2s.07-.04.1-.02l2.04.77s.06,0,.09-.01Z"/>
  <polygon class="cls-7" points="49.61 98.56 35.8 104.63 44.12 110.43 50.3 107.87 59.96 111.59 68.63 106.93 73.52 108.78 83.06 104.28 69.29 96.14 59.45 112.15 49.61 98.56"/>
  <path class="cls-9" d="M49.61,93.08v5.48l9.58,12.74,10.1-15.16v-3.98c-2.75.6-6.06,1.12-9.83,1.29-3.74.17-7.07-.03-9.85-.36Z"/>
  <g id="Layer_12" data-name="Layer 12">
    <path class="cls-9" d="M28.32,83.02c8.09,3.12,7.33,5.66,14.36,8.32,6.7,2.54,12.7,2.11,17.32,2.01,3.56-.08,8.91-.62,14.9-2.95,4.67-1.82,8.25-4.14,10.74-6.04,6.81,1.72,12.93-1.02,14.63-5.37,1.72-4.4-.96-11.25-3.89-11.01-1.33.11-2.98,3.81-6.31,8.2l-4.56,3.88.17-16.44-3.13-8.93-2.15,6.44-9.84-20.96-17.69-.59-4.56,8.53-.81-7.79-13.66,23.5-.56,17.84-5.5-3.22-.4-3.49-6.98-12.81c-1.06.45-3.67,1.73-5.12,4.57-2.1,4.13-.47,9.02,1.9,11.73,2.54,2.91,4.93,2.17,11.14,4.56Z"/>
  </g>
  <g id="Layer_11" data-name="Layer 11">
    <path class="cls-13" d="M33.93,79.82l51.28.58v-17.34c0-.59-.11-1.18-.33-1.72l-2.62-6.62-2.15,6.44-9.84-21.55h-17.69l-4.56,8.53-.81-7.79-13.69,24.46.4,15.01Z"/>
  </g>
  <polygon id="Eye_White" data-name="Eye White" class="cls-11" points="49.05 72.87 49.05 78.88 42.34 80.41 36.37 74.71 36.37 68.13 49.05 72.87"/>
  <polygon id="Eye_WHite" data-name="Eye WHite" class="cls-11" points="69.29 71.75 69.29 77.52 75.99 78.99 81.96 73.51 81.96 67.2 69.29 71.75"/>
  <path class="cls-12" d="M37.56,68.6s3.08,8.43,5.15,8.73,6.34-4.46,6.34-4.46l-11.49-4.27Z"/>
  <path class="cls-12" d="M80.78,68.15s-3.08,8.43-5.15,8.73-6.34-4.46-6.34-4.46l11.49-4.27Z"/>
  <line id="Upper_Eye" data-name="Upper Eye" class="cls-3" x1="35.3" y1="67.72" x2="51.44" y2="74.03"/>
  <polyline class="cls-1" points="8.99 69.6 20.4 62.15 27.38 74.97 47.52 40.34 48.32 48.12 56.64 32.55 60 39.26 66.04 30.54 80.4 61.14 82.55 54.7 90.07 76.18 100.54 58.19"/>
  <polygon class="cls-2" points="52.56 40.18 70.57 40.18 66.04 30.54 60 39.26 56.64 32.55 52.56 40.18"/>
  <line id="bottome_forehead_line" data-name="bottome forehead line" class="cls-1" x1="44" y1="57.27" x2="73.45" y2="57.27"/>
  <line id="Top_forehead_line" data-name="Top forehead line" class="cls-1" x1="54.18" y1="50.33" x2="62.3" y2="50.33"/>
  <line class="cls-8" x1="65.74" y1="73.02" x2="82.28" y2="66.52"/>
  <polygon id="Left_Eyebrow" data-name="Left Eyebrow" class="cls-5" points="51.83 73.02 54.77 67.93 37.06 63.43 36.78 64.19 51.83 73.02"/>
  <polygon id="Right_Eyebrow" data-name="Right Eyebrow" class="cls-5" points="63.18 69.4 66.41 73.51 77.36 62.16 76.38 60.89 63.18 69.4"/>
  <path class="cls-6" d="M36.37,75.52l4.13,3.94c.62.59,1.48.85,2.32.71l6.79-1.18"/>
  <path class="cls-6" d="M82.24,73.84l-4.13,3.94c-.62.59-1.48.85-2.32.71l-6.79-1.18"/>
  <path class="cls-10" d="M51.87,78.77l-1.34,1.88-1.44,2.02-.02.03c-.05-.04-.08-.02-.05-.08.08-.17,2.21-4.84,2.2-4.83,0,0,.95.55.95.55l-.29.41h0Z"/>
  <polygon class="cls-10" points="66.78 78.1 71.91 81.78 66.27 78.95 65.82 78.73 66.38 77.8 66.78 78.1 66.78 78.1"/>
  <path class="cls-6" d="M53.23,87.76s4.71-2.41,6.14-2.22,4.62,2.22,4.62,2.22"/>
  <path class="cls-10" d="M34.61,90.11l4.77-4.19.44-.39.78.78-.39.44c-.44.5-4.55,5.18-4.85,5.53,0,0-1.51-1.51-1.51-1.51l.75-.66h0Z"/>
  <path class="cls-10" d="M74.79,93.33l-1.85-3.54-.28-.54.92-.6.38.48c.46.58,2.71,3.38,3.13,3.9,0,0-1.84,1.2-1.84,1.2l-.47-.89h0Z"/>
  <path class="cls-10" d="M43.71,93.38l2.32-3.25.36-.5.96.55-.25.56c-.31.68-1.79,3.95-2.07,4.55,0,0-1.9-1.1-1.9-1.1l.58-.82h0Z"/>
  <path class="cls-10" d="M78.38,90.61c-.4-.4-2.49-2.45-2.84-2.8,0,0,.93-1.09.93-1.09l.62.46c.59.43,2.86,2.1,3.4,2.51,0,0-1.39,1.63-1.39,1.63l-.71-.7h0Z"/>
</svg>