<?xml version="1.0" encoding="UTF-8"?>
<svg id="Curly" xmlns="http://www.w3.org/2000/svg" viewBox="0 0 120 120">
  <defs>
    <style>
      .cls-1, .cls-2, .cls-3, .cls-4, .cls-5, .cls-6 {
        stroke: #363636;
        stroke-linecap: round;
        stroke-linejoin: round;
      }

      .cls-1, .cls-5 {
        fill: #d6ab76;
      }

      .cls-2, .cls-4 {
        fill: none;
      }

      .cls-7 {
        fill: #fff;
      }

      .cls-3 {
        fill: #445c74;
      }

      .cls-4 {
        stroke-width: 3px;
      }

      .cls-5 {
        stroke-width: 2px;
      }

      .cls-6 {
        fill: #efd2a8;
      }
    </style>
  </defs>
  <g id="Layer_8" data-name="Layer 8">
    <g id="Layer_9" data-name="Layer 9">
      <path class="cls-5" d="M55.97,21.01l-9.8,2.28s-23.22,11.01-26.17,21.34-4.03,13.41-4.03,13.41l-8.19,13.97,7.92-2.55s-4.7,11.01,9.66,13.83c4.03,4.43,8.72,7.92,8.72,7.92l-6.26,8.39c-.16.21.03.51.29.46l11.61-2.27-3.76,9.66s13.8,9.11,22.42,8.86c1.53-.05,5.64,1.07,15.57-4.7,3.11-2.05,7.65-4.03,7.65-4.03l7.79,1.61-7.92-11.14,5.77-.27-2.01-9.53s3.62-2.68,6.04-4.56,8.46.27,11.01-8.86c.54,0,9.53-2.82,9.53-2.82l-5.77-5.72-8.05-29.31-27.11-15.97h-6.44l1.34-6.85L46.71,2.28l9.26,18.73Z"/>
      <polyline class="cls-1" points="61.53 29.05 54.18 25.04 26.2 49.69"/>
      <polyline class="cls-1" points="61.53 29.05 67.58 25.04 78.34 35.6"/>
    </g>
    <path class="cls-6" d="M49.15,97.24v1.95l9.33,16.53,10.37-16.43v-2.66s-9.56,3.45-19.7.61Z"/>
    <path class="cls-6" d="M33.83,90.38s6.34,7.77,25.53,7.64c15.17-.1,27.85-10.79,32.4-13.87,1.08-.73,2.27-1.27,3.54-1.54,2.4-.5,6.58-2.22,6.98-8.23.52-3.85-2.52-6.69-2.52-6.69l-7.01-.78.13,4.81-5.91,5.44v-11.14l-12.48-2.11s-9.66-15.42-6.44-20.2,3.62-8.5,3.62-8.5l-6.58-1.19-5.3,5.57-5.84-5.57-4.83,2.52,6.04,7.75-22.95,23.52-5.37,3.1s-6.03-10.28-10.33-1.28c-1.75,8.49,2.55,12.83,8.85,13.1,5.11,4.91,8.46,7.64,8.46,7.64Z"/>
    <polygon class="cls-1" points="26.85 70.93 26.85 72.58 32.75 78.65 32.75 67.27 26.85 70.93"/>
    <polyline class="cls-2" points="56.36 20.67 61.53 29.05 64.03 20.51"/>
    <polyline class="cls-2" points="81.76 39.91 99.96 58.4 90.93 57.53 103.75 68 74.5 63.91"/>
    <line class="cls-6" x1="53.1" y1="41.38" x2="69.47" y2="41.38"/>
    <path class="cls-3" d="M49.15,98.41s-1.83.66-6.03,4.3c-4.49,3.9-5.32,4.34-5.28,5.38.02.54.32,2.14,7.92,5.18,4.97,1.99,13.22,3.05,13.22,3.05,0,0-3.62-3.83-6.67-11.56-1.42-3.59-3.17-6.36-3.17-6.36Z"/>
    <path class="cls-3" d="M68.85,98.51s2.39,1.13,7.24,4.5c4.21,2.93,5.96,3.46,5.87,4.6-.09,1.24-2.22,1.52-6.26,3.23-7.53,3.19-9.71,6.27-14.67,5.87-1.99-.16-2.45-.88-2.45-.88,0,0,3.2-4.19,6.46-10.37,2.26-4.29,3.82-6.95,3.82-6.95Z"/>
    <path class="cls-5" d="M50.13,66.96l3.9-5.69c.66-.96.2-2.28-.92-2.62l-15.19-4.66c-.87-.27-1.79.19-2.12,1.04l-.8,2.11c-.28.75-.02,1.59.64,2.04l12.1,8.24c.79.54,1.86.33,2.39-.45Z"/>
    <path class="cls-5" d="M64.58,64.05l2.79,4.99c.27.49.9.66,1.39.38l13.06-7.56c.5-.29.66-.94.34-1.43l-1.99-3.02c-.26-.4-.77-.56-1.22-.38l-13.86,5.58c-.56.23-.8.9-.5,1.43Z"/>
    <polygon class="cls-7" points="34.88 69.98 35.25 79.23 44 81.58 52.03 78.26 52.03 74.83 46.04 70.92 34.88 69.98"/>
    <polygon class="cls-7" points="64.03 74.24 64.03 78.26 72.8 81.4 82.32 78.26 82.32 69.56 68.17 71.11 64.03 74.24"/>
    <polygon class="cls-3" points="39.04 69.98 39.04 80.19 44 81.58 51.34 78.65 51.34 74.83 45.57 69.98 39.04 69.98"/>
    <polyline class="cls-3" points="70.75 70.86 82.32 69.56 82.32 78.26 72.8 81.4 70.27 80.11 70.27 70.43"/>
    <polyline class="cls-4" points="35.98 69.56 46.74 71.02 52.03 74.83"/>
    <polyline class="cls-4" points="64.03 74.24 69.47 71.02 81.57 69.56"/>
    <polyline class="cls-2" points="52.03 78.65 44 81.58 35.98 79.33"/>
    <polyline class="cls-2" points="82.32 78.65 72.18 81.58 64.46 78.26"/>
    <line class="cls-3" x1="74.5" y1="80.84" x2="75.8" y2="82.76"/>
    <line class="cls-3" x1="79.91" y1="79.23" x2="81.57" y2="80.84"/>
    <line class="cls-3" x1="36.28" y1="79.23" x2="34.22" y2="82.76"/>
    <line class="cls-3" x1="39.8" y1="80.11" x2="39.04" y2="82.76"/>
    <path class="cls-2" d="M52.32,88.14c.2.24,2.97,3.42,6.85,2.84,1.8-.27,3.03-1.23,3.62-1.76"/>
  </g>
</svg>