<?xml version="1.0" encoding="UTF-8"?>
<svg id="Spicy_Curly" data-name="Spicy Curly" xmlns="http://www.w3.org/2000/svg" viewBox="0 0 120 120">
  <defs>
    <style>
      .cls-1, .cls-2, .cls-3, .cls-4, .cls-5, .cls-6, .cls-7, .cls-8, .cls-9, .cls-10 {
        stroke: #461c1e;
      }

      .cls-1, .cls-2, .cls-3, .cls-4, .cls-7, .cls-10 {
        stroke-linecap: round;
        stroke-linejoin: round;
      }

      .cls-1, .cls-2, .cls-3, .cls-6, .cls-7, .cls-8, .cls-10 {
        stroke-width: 2px;
      }

      .cls-1, .cls-5, .cls-8, .cls-9 {
        fill: #eee1d1;
      }

      .cls-2 {
        fill: #506689;
      }

      .cls-3, .cls-4 {
        fill: none;
      }

      .cls-4 {
        stroke-width: 3px;
      }

      .cls-5 {
        stroke-width: 2px;
      }

      .cls-5, .cls-6, .cls-8, .cls-9 {
        stroke-miterlimit: 10;
      }

      .cls-6, .cls-7 {
        fill: #a54149;
      }

      .cls-9 {
        stroke-width: 1.95px;
      }

      .cls-10 {
        fill: #f2dcce;
      }
    </style>
  </defs>
  <path id="Neck" class="cls-7" d="M50.56,92.91v3.36l-12.09,5.79s5.25,7.54,19.38,7.81,25.84-8.48,25.84-8.48l-11.71-5.25.05-3.44"/>
  <path id="Head" class="cls-6" d="M26.22,60.87c-.15,26.24,12.52,32.57,33.78,32.57s34.45-4.81,34.45-30.8-6.41-39.32-33.01-39.32-35.09,13.59-35.22,37.55Z"/>
  <g id="Mouth">
    <polygon id="MouthOutline" class="cls-10" points="51.25 92.69 53.26 79.85 66.56 79.85 72.03 92.69 51.25 92.69"/>
    <polygon id="BottomRight_Teeth" class="cls-3" points="62.15 79.85 62.15 86.27 68.64 86.27 66.56 79.85 62.15 79.85"/>
    <rect id="Middle_Teeth" class="cls-3" x="55.96" y="86.27" width="6.19" height="6.64"/>
    <polygon id="BottomLeft_Teeth" class="cls-10" points="55.96 86.27 52.39 86.27 51.12 92.91 55.96 92.91 55.96 86.27"/>
    <rect id="UpperLeft_Teeth" class="cls-3" x="55.96" y="79.85" width="6.19" height="6.42"/>
  </g>
  <g id="Eye">
    <path id="EyeWhite-2" data-name="EyeWhite" class="cls-10" d="M64.58,63.52s-1.75,11.62,9.56,11.49c8.08-.13,7.94-2.69,7.94-2.69,0,0-4.17,7.67,1.62,7.54s5.38-5.25,2.96-11.17c1.08-5.25,2.25-18.98-10.25-18.98s-11.69,11.48-11.82,13.82Z"/>
    <path id="Iris" class="cls-2" d="M76.68,65.04l3-1.57c.97-.51,1.58-1.52,1.58-2.61v-2.46c0-1.47-.96-2.78-2.37-3.2l-2.46-.75c-1-.3-2.08-.02-2.8.74l-2.27,2.4c-.94,1-1.03,2.54-.2,3.64l2.35,3.11c.74.97,2.07,1.27,3.15.71Z"/>
    <line id="Pupil" class="cls-4" x1="75.28" y1="59.33" x2="75.28" y2="60.87"/>
  </g>
  <g id="Bangage">
    <path id="LowerBandage" class="cls-8" d="M49.91,92.1l-1.32-4.47c-1.8-6.1-.72-12.7,2.94-17.91l.16-.23-25.34-13.07s-2.05,25.04,9.21,30.97c3.72,2.56,14.35,4.71,14.35,4.71Z"/>
    <path id="Across_Bandage" class="cls-1" d="M92.78,76.28l-4.46-3.03s1.15,7.28-4.64,6.61-2.02-6.7-2.02-6.7c0,0-16.21,7.52-17.19-8.03-7.04-3.84-36.56-19.77-36.56-19.77l-1.57,11.07,59.63,30.76s5.94-7.88,6.8-10.9Z"/>
    <polygon id="Upper_Accross_Bandage" class="cls-8" points="30.81 37.68 58.12 51.45 62.88 64.25 27.92 45.35 30.81 37.68"/>
    <path id="Upper_LBandage" class="cls-8" d="M61.08,57.24s3.15-8.21,7.56-11.04c3.24-2.07,13.35-5.98,18.52-7.93,1.52-.57,2.01-2.47.96-3.71l-5.12-6.06s-16.97,6.57-20.12,9.17-10.52,10.87-10.52,10.87l5.75,2.9,2.96,5.79Z"/>
    <path id="Bottom_UpperBandage" class="cls-5" d="M68.48,34.54s-18.5-15.43-29.57-5.85-6.76,9.67-6.76,9.67l20.64,9.61,6.97-7.21c1.98-2.04,4.25-3.78,6.74-5.14l1.97-1.08Z"/>
    <path id="Middle_UpperBandage" class="cls-9" d="M73.06,32.07v-6.19c0-1.17-.86-2.14-2-2.27-4.92-.54-17.49-1.67-21.07.23,3.69,2.12,17.89,6.72,17.99,10.51,1.53-.97,5.08-2.29,5.08-2.29Z"/>
    <path id="Corner_Bandage" class="cls-8" d="M76.19,25.03l3.76,1.92c1.2.61,1.12,2.35-.12,2.86l-3.76,1.53c-1.03.42-2.16-.34-2.16-1.46v-3.45c0-1.17,1.24-1.93,2.29-1.4Z"/>
    <path id="Lower_Bandage" class="cls-1" d="M51.12,69.19s-5.96,9.73-.56,23.72c-9.94-2.03-10.21-4.18-10.21-4.18,0,0-6.46-11.31,1.18-24.48"/>
    <path id="L_BodyBandage" class="cls-5" d="M72.19,96.72l1.71.72c.71.3.97,1.17.54,1.82l-5.67,8.42c-.19.28-.48.47-.82.52l-6.32,1.04c-1.18.19-1.91-1.24-1.06-2.08l10.28-10.18c.35-.35.88-.45,1.34-.26Z"/>
    <path id="R_BodyBandage" class="cls-5" d="M75.94,98.24l2.09.71c.51.18.76.76.53,1.25l-2.45,5.2c-.11.24-.33.42-.59.49l-4.41,1.16c-.81.21-1.46-.69-.99-1.39l4.77-7.07c.23-.34.66-.49,1.05-.35Z"/>
  </g>
</svg>