<?xml version="1.0" encoding="UTF-8"?>
<svg id="Swansae" xmlns="http://www.w3.org/2000/svg" viewBox="0 0 120 120">
  <defs>
    <style>
      .cls-1, .cls-2, .cls-3, .cls-4, .cls-5, .cls-6, .cls-7, .cls-8, .cls-9 {
        stroke: #363636;
      }

      .cls-1, .cls-2, .cls-4, .cls-5, .cls-6, .cls-9 {
        stroke-linecap: round;
        stroke-linejoin: round;
      }

      .cls-1, .cls-5, .cls-7 {
        fill: #7f675b;
      }

      .cls-2 {
        fill: #f2d8a8;
      }

      .cls-3 {
        fill: #645250;
      }

      .cls-3, .cls-7, .cls-8 {
        stroke-miterlimit: 10;
      }

      .cls-4, .cls-9 {
        fill: none;
      }

      .cls-10 {
        fill: #fff;
      }

      .cls-5 {
        stroke-width: 3px;
      }

      .cls-6 {
        fill: #eee387;
      }

      .cls-8 {
        fill: #495563;
        stroke-width: .25px;
      }

      .cls-9 {
        stroke-width: 2px;
      }
    </style>
  </defs>
  <path class="cls-5" d="M42.61,18.22l-9.52,1c-2.17.23-4.15,1.31-5.52,3.01L6.6,48.38l11.96-5.84-1.7,4.99c-.39,1.15-.28,2.4.3,3.47l4.91,9s-1.33,20.54,3.35,22.67c1.25,1.7,6.6,6.58,8.67,8.45.54.48,1.19.83,1.89,1l3.42.83.21,2.72-5.48,7.26,21.31,8.41,30.09-11.19-7.53-6.78s4.32-3.09-.56-3.92c5.31-1.64,5.06-4.45,6.16-7.21,1.24.78,16.35,1.87,16.47-10.5-.29-5.16-3.55-7.74-8.03-7.88,1.6-.57,4.85-5.39,6.69-8.29.87-1.38,1.27-3,1.13-4.63l-1-11.31c-.19-2.1-1.39-3.98-3.23-5.02L54.43,11.2c-2.14-1.22-4.84-.78-6.49,1.06l-5.34,5.96Z"/>
  <path class="cls-2" d="M38.1,28.12l-15.52,19.3s-2.09,29.87,2.22,34.57c3.21,3.5,7.07,7.29,8.83,8.99.62.6,1.39,1.01,2.23,1.19l3.55.77s-.52,2.61,4.3,4.04c2.22,3.39,11.74,14.35,11.74,14.35l22.17-18.13s1.4-.72,2.09-1.83c.84-2.19-2.84-1.24-2.84-1.24,0,0,4.53-.85,6.75-7.89,5.22.78,15.78-1.43,16.3-9.26,0,0,2.87-11.87-15.13-9.13-2.22-.13-15-16.43-15-16.43l2.22,7.83-19.7-15.26-.65,7.57-13.57-19.43Z"/>
  <path class="cls-6" d="M78.02,93.37l6.57,5.82c.43.37.31,1.06-.22,1.26l-28.65,10.78c-.17.06-.36.06-.53,0l-20.66-7.89c-.45-.17-.62-.72-.35-1.12l4.99-7.22c.26-.38.8-.43,1.13-.11l.61.6c.41.4.9.72,1.43.94l1.18.49c.11.05.22.12.29.22l10.76,13.18c.26.31.72.37,1.04.12l21.44-17.08c.28-.22.68-.21.95.02Z"/>
  <polygon class="cls-10" points="27.21 67.38 39.41 67.84 38.82 73.97 28.64 73.97 26.43 67.38 27.21 67.38"/>
  <polygon class="cls-10" points="57.41 68.82 61.78 73.58 76.19 73.58 76.19 64.77 57.41 68.82"/>
  <polygon class="cls-8" points="30.99 67.38 31.25 73.58 38.23 73.58 38.23 67.38 30.99 67.38"/>
  <polygon class="cls-8" points="61.91 66.92 74.04 64.77 72.54 73.58 63.73 73.97 61.91 66.92"/>
  <line class="cls-4" x1="39.41" y1="92.95" x2="48.93" y2="92.95"/>
  <line class="cls-4" x1="43.83" y1="97.14" x2="50.36" y2="98.03"/>
  <path class="cls-4" d="M79.48,91.92c-2.26,1.37-5.28,2.93-9.03,4.16-3.58,1.17-6.81,1.71-9.36,1.96"/>
  <polyline class="cls-9" points="57.14 68.29 76.97 64.18 76.97 70.97"/>
  <line class="cls-4" x1="61.78" y1="73.9" x2="72.99" y2="73.9"/>
  <polyline class="cls-9" points="38.75 67.58 25.58 66.86 27.93 72.21"/>
  <line class="cls-4" x1="30.47" y1="73.58" x2="38.75" y2="73.58"/>
  <line class="cls-4" x1="35.79" y1="52.15" x2="59.45" y2="52.15"/>
  <line class="cls-4" x1="41.04" y1="47.46" x2="51.61" y2="47.55"/>
  <path class="cls-3" d="M52.27,64.14l4.09,2.17c.57.3,1.27.06,1.53-.52l5.18-11.35c.2-.58-.07-1.21-.59-1.47-.46-.23-1.04-.11-1.41.29-3.03,3.04-6.05,6.07-9.08,9.11-.53.53-.39,1.42.27,1.77Z"/>
  <path class="cls-7" d="M38.87,64.89c.69-.59,1.74-1.69,2.34-2.33.26-.27.25-.7-.01-.97l-7.14-7.35c-.64-.36-1.44-.28-1.98.2-.49.43-.68,1.12-.49,1.76,2.09,2.86,4.18,5.71,6.26,8.57.24.33.71.39,1.02.12Z"/>
  <path class="cls-4" d="M44.17,60s-3.98,10.22-3.49,13.58,4.7,4.24,4.7,4.24"/>
  <line class="cls-4" x1="43" y1="79.18" x2="38.23" y2="86.23"/>
  <line class="cls-1" x1="56.53" y1="77.82" x2="59.45" y2="80.46"/>
  <path class="cls-4" d="M48.21,83.2s3.39-1.66,8.84.98"/>
  <path class="cls-2" d="M55.45,111.34l22.17-18.13s1.56-.93,2.09-1.83"/>
</svg>