<?xml version="1.0" encoding="UTF-8"?>
<svg id="Daisuke" xmlns="http://www.w3.org/2000/svg" viewBox="0 0 120 120">
  <defs>
    <style>
      .cls-1, .cls-2, .cls-3, .cls-4, .cls-5, .cls-6, .cls-7, .cls-8, .cls-9 {
        stroke: #363636;
        stroke-miterlimit: 10;
      }

      .cls-1, .cls-5 {
        fill: #886058;
      }

      .cls-2, .cls-10 {
        fill: #fff;
      }

      .cls-2, .cls-3 {
        stroke-width: 3px;
      }

      .cls-2, .cls-3, .cls-4, .cls-5, .cls-6, .cls-7, .cls-8 {
        stroke-linecap: round;
      }

      .cls-3, .cls-6, .cls-7 {
        fill: none;
      }

      .cls-4 {
        fill: #ebd3ad;
      }

      .cls-5, .cls-6 {
        stroke-width: 2px;
      }

      .cls-11 {
        fill: #d6ab76;
      }

      .cls-8 {
        fill: #d17274;
      }

      .cls-9 {
        fill: #363636;
      }
    </style>
  </defs>
  <g id="Layer_5" data-name="Layer 5">
    <path class="cls-5" d="M93.51,31.53l10.24,22.56c.14.32.4.57.72.72l10.8,4.89c.95.43,1.14,1.69.37,2.39l-7.8,7.02c-.44.4-.59,1.02-.39,1.58l2.09,5.54c.41,1.08-.56,2.18-1.68,1.91l-11.99-2.83c-.67-.16-1.36.18-1.65.81l-1.85,4.11c-.17.38-.17.83.01,1.21l4.42,9.36c.43.92-.19,1.98-1.2,2.06l-11.38.81c-.46.03-.89.29-1.13.69l-2.46,4.02c-.38.63-1.18.87-1.85.55l-10.7-5.09c-.18-.05-.35-.09-.53-.14l-16.54-.99c-.09,0-.18,0-.27,0l-22.56,2.91c-1.13.15-1.98-1.02-1.49-2.05l3.75-7.94c.34-.71.04-1.56-.67-1.91l-23.6-11.63c-.97-.48-1.09-1.81-.22-2.45l12.77-9.42c.16-.21.32-.41.48-.61l11.1-27.14c.14-.35.42-.63.77-.78l31.11-13.35c.36-.15.77-.16,1.13,0l29.44,12.45c.33.14.6.4.75.73Z"/>
    <path class="cls-11" d="M18.08,62.59l-6.33,7.5,23.48,12.98-4.04,7.45,21.98-1.06-.36,2.28-25.08,2.8,3.58-8.66c.44-1.07-.02-2.3-1.06-2.81l-24.17-11.86,12-8.62Z"/>
    <polygon class="cls-11" points="69.02 91.11 77.56 95.46 82.19 90.7 93.26 91.09 91.84 83.33 96.08 91.8 82.55 93.43 79.64 98.39 68.3 93.11 69.02 91.11"/>
    <line class="cls-7" x1="59.79" y1="41.55" x2="80" y2="41.55"/>
    <path class="cls-4" d="M29.71,65.08c-.1-.58-.82-.82-1.23-.39-2.95,3.14-3.39,7.91-1.08,11.33,2.18,3.22,6.4,4.66,10.31,3.44.3-.09.63,0,.81.26,1.2,1.72,6.04,7.92,14.51,9.05.43.06.72.46.62.88-.25,1-.65,2.1-.88,2.7-.11.28-.03.59.19.79,1.79,1.58,9.52,8.55,12.61,13.39.35.55,1.2.37,1.3-.27.7-4.45.44-11.11.38-12.36,0-.14.03-.27.1-.39l1.95-3.28c.14-.23.38-.37.65-.35,2.66.17,17.07.56,22.71-10.29,3.48-6.63.24-10.15,0-14.06-.2-3.33.19-7.52.31-8.68.02-.2-.04-.4-.18-.55l-13.2-14.72c-.14-.15-.33-.24-.53-.24h-18.73c-.21,0-.41.09-.55.26l-27.33,32.84c-.39.47-1.16.26-1.26-.34l-1.48-9Z"/>
    <polygon class="cls-11" points="58.19 43.5 39.14 58.66 41.36 54.56 31.58 61 32.36 58.66 23.7 64.87 28.94 64.02 31.45 74.42 58.19 43.5"/>
    <path class="cls-11" d="M81.86,44.09l13.63,11.05v-2.77s11.63,11.16,20.55,9.06c-2.68,2.59-8.42,11.48-12.6,6.97s-21.59-24.31-21.59-24.31Z"/>
    <path class="cls-7" d="M103.45,68.59l-23.45-27.05c-.18-.21-.23-.5-.13-.75l2.03-5.13c.15-.39-.05-.83-.44-.97l-6.94-2.43c-.32-.11-.68.01-.86.3l-2.85,4.46c-.29.45-.96.45-1.24,0l-3.27-5.2c-.22-.36-.7-.45-1.05-.21l-7.2,5.06c-.3.21-.4.6-.24.93l1.97,3.96c.13.26.09.57-.09.8l-26.95,32.43c-.4.49-1.19.27-1.29-.35l-1.57-9.81c-.07-.45-.52-.72-.95-.58l-4.3,1.38c-.68.22-1.24-.57-.82-1.14l26.28-35.33"/>
    <path class="cls-8" d="M67.19,108.5l-29.22-7.43s-2.4-6.22,14.8-8.7c1.94,1.33,4.05,2.95,6.2,4.92,3.41,3.12,5.99,6.26,7.91,8.98.4-4.14.81-8.27,1.21-12.41,0,0,10.68,3.3,10.42,7.12-.03.43-.24,1.1-2.2,2.7-1.78,1.46-4.74,3.47-9.13,4.83Z"/>
    <path class="cls-10" d="M46.25,65.68l1.86,6.65,16.34-2.25.49-6.74-17.61-2.26s-2.25,2.05-1.08,4.6Z"/>
    <path class="cls-6" d="M45.76,65.68v-2.65c0-1.26,1.14-2.22,2.39-2l17.18,3.08"/>
    <line class="cls-7" x1="48.11" y1="72.34" x2="64.45" y2="70.09"/>
    <path class="cls-6" d="M88.19,60.22l-10.47,5.82c-.14.08-.11.29.04.33l13,3.15"/>
    <path class="cls-7" d="M64.94,77.82c.77.27,1.91.53,3.13.2,1.77-.48,3.42-1.76,3.42-1.76,0,0,1.73,1.46,3.33,1.66,1.09.14,2.07-.39,2.74-.88"/>
    <path class="cls-2" d="M52.81,55.22c.77-.31,2.94-1.06,5.58-.39,1.91.48,3.19,1.49,3.82,2.05"/>
    <path class="cls-3" d="M78.24,57.37c.6-.51,1.65-1.27,3.13-1.76,1.76-.58,3.28-.5,4.11-.39"/>
    <polygon class="cls-1" points="51.2 61.58 51.2 71.91 62.2 70.09 62.06 63.34 51.2 61.58"/>
    <circle class="cls-9" cx="49.87" cy="75.47" r=".43"/>
  </g>
</svg>