<?xml version="1.0" encoding="UTF-8"?>
<svg id="Anya" xmlns="http://www.w3.org/2000/svg" viewBox="0 0 120 120">
  <defs>
    <style>
      .cls-1, .cls-2, .cls-3, .cls-4, .cls-5, .cls-6, .cls-7 {
        stroke: #363636;
      }

      .cls-1, .cls-2, .cls-3, .cls-5, .cls-6, .cls-7 {
        stroke-linecap: round;
      }

      .cls-1, .cls-2, .cls-3, .cls-6, .cls-8 {
        fill: none;
      }

      .cls-1, .cls-3, .cls-5, .cls-7, .cls-8 {
        stroke-linejoin: round;
      }

      .cls-9 {
        fill: #fff;
      }

      .cls-2, .cls-3 {
        stroke-width: 3px;
      }

      .cls-2, .cls-4, .cls-6 {
        stroke-miterlimit: 10;
      }

      .cls-10 {
        fill: #cf9565;
      }

      .cls-4, .cls-5 {
        fill: #504d60;
      }

      .cls-11 {
        fill: #ded5be;
      }

      .cls-5 {
        stroke-width: 2px;
      }

      .cls-7 {
        fill: #ecd4a8;
      }

      .cls-8 {
        stroke: #c9d396;
      }
    </style>
  </defs>
  <path id="Hair_Outline_and_Fill" data-name="Hair Outline and Fill" class="cls-5" d="M41.8,10.7c8.3,0,25.2,0,33.4,0s5.9,1.3,7.9,3.5l17.4,18.7c2.7,2.9,4.1,6.9,3.8,10.9l-2.7,34.2,14.5,17.5s-13.7-.4-14,0,3.8,14,3.8,14l-29.3,3.5,9.9-14.2-5.6-5.9-24.5,11.8-14.4-8.3-8.2,3v9.9l-23-10.6,2.4-5.8-6.7-4.2,8.3-8.6-2.3-29.6c-.4-4.7,1-9.3,3.9-13l17.7-22.9c1.8-2.4,4.7-3.8,7.7-3.8Z"/>
  <path id="Face_Outline_and_Fill" data-name="Face Outline and Fill" class="cls-7" d="M42.3,28.8l4.2,29.6,12.2-26.6,6.7,10.3,1.7-8.1,14.1,22-9.9,14.5-8.2-.9,9.9,10,23.3-23.7s6.3,6.2-1.1,13.6c-6.7,5.2-9.8,1.9-9.8,1.9,0,0-7.4,10.8-20.6,11s-22,1.7-32.3-4.2c2.2-3.6,3.8-8.1,3.8-8.1l-8.7,1.7-2.4-3.9c-1.3-2.2-2-4.8-1.8-7.3.5-7.2,1.7-21.7,3-24.2,5-4.7,6.6-6.2,6.6-6.2l-2.3,12.8,11.6-14.5Z"/>
  <path id="Turtle_Neck_Color" data-name="Turtle Neck Color" class="cls-11" d="M43.1,83.7s12.9-1.5,31.9-1.2c.9.6-2.1,5.8-2.1,5.8l8.2,4.2-24.8,12.2-14.4-8.8,4.3-3.1-3.2-9Z"/>
  <path id="Orange_Stripe_Fill" data-name="Orange Stripe Fill" class="cls-10" d="M43,84.3l1.9,4.4s4.2,2,9.6,2,19.4-4.3,19.4-4.3l1.1-2.7s-18,3.5-20.9,3.5-10.9-2.1-11.1-2.9Z"/>
  <path id="Orange_Stripe_Fill-2" data-name="Orange Stripe Fill" class="cls-10" d="M45.8,91.1s6.4,3.6,9.6,3.6,18.1-6.3,18.1-6.3l2.4,1.2s-18.3,9.1-19.7,9.1-11-5.3-11-5.3l1.1-1.2-.4-1.2Z"/>
  <path id="Green_Path" data-name="Green Path" class="cls-8" d="M43.7,84c4.2,1,7.7,1.2,10,1.2,2.7,0,4.6-.2,12.3-1.2,4.4-.5,7.8-1,9.2-1.1"/>
  <path id="Green_Path-2" data-name="Green Path" class="cls-8" d="M45.4,90.1c3.9,2.2,7.1,2.7,9,2.8,3.2.1,5.8-.7,10.9-2.3,3.4-1.1,6.1-2.1,7.9-2.9"/>
  <path id="Green_Path-3" data-name="Green Path" class="cls-8" d="M43.5,94.3c1.6,1.7,12.5,6.7,12.5,6.7,0,0,11-3.9,21.9-10.1"/>
  <path id="Turtle_Neck_Outline" data-name="Turtle Neck Outline" class="cls-1" d="M43.1,83.6s12.9-1.5,31.9-1.2c.9.6-2.1,5.8-2.1,5.8l8.2,4.2-24.8,12.2-14.4-8.8,4.3-3.1-3.2-9Z"/>
  <polygon id="R_Eye_White" data-name="R Eye White" class="cls-9" points="58.1 52.9 75.5 56.9 74.8 63.9 68.2 65.5 58.5 61.8 58.1 52.9"/>
  <polygon id="L_Eye_White" data-name="L Eye White" class="cls-9" points="27.3 58.7 27.3 63.9 35.5 65.1 42.7 61.3 42.5 51.8 27.3 58.7"/>
  <path id="L_pupil" data-name="L pupil" class="cls-4" d="M33.8,56c.9-.5,8.2-3.8,8.2-3.8v9.3l-6.9,3.4c-.5.2-1,0-1.1-.6l-.3-8.2Z"/>
  <polygon id="R_Eye_Pupil" data-name="R Eye Pupil" class="cls-4" points="64.6 55 64.6 63.9 68.5 65 74.5 63.6 75.1 56.3 64.6 55"/>
  <line id="R_Upper_Lash" data-name="R Upper Lash" class="cls-3" x1="56.9" y1="52.5" x2="77.3" y2="57.1"/>
  <line id="L_Upper_Lash" data-name="L Upper Lash" class="cls-2" x1="42" y1="51.9" x2="25.9" y2="58.4"/>
  <path id="L_Bottom_Lash" data-name="L Bottom Lash" class="cls-6" d="M43,60.9l-6.6,3.7c-.7.4-1.5.5-2.2.5l-6.5-.7"/>
  <path id="R_Bottom_Lash" data-name="R Bottom Lash" class="cls-6" d="M58.6,61.8l8.6,3.1c.6.2,1.2.2,1.8,0l5.5-1.4"/>
  <path id="R_Eyebrow_Path" data-name="R Eyebrow Path" class="cls-2" d="M58.1,39l2,3.4c.8,1.3,2.1,2.1,3.5,2.3l7.4.7"/>
  <path id="L_Eyebrow_Path" data-name="L Eyebrow Path" class="cls-2" d="M39.4,39v.8c0,1.9-1.1,3.5-2.9,4.2l-5.7,2.2"/>
  <path id="Mouth_Path" data-name="Mouth Path" class="cls-1" d="M43,73.3l4.4-1.4c.8-.3,1.6-.2,2.4,0l4.4,1.6"/>
  <path id="L_Hair_Line" data-name="L Hair Line" class="cls-1" d="M32.6,78.5l-8.6,1.9c-.2.4-1.9-1-2.3-1.3l-4.8-8.7c-.3-.2-.4-.4-.4-.7l5.5-33.9"/>
  <line id="R_Hair_Line" data-name="R Hair Line" class="cls-1" x1="81.2" y1="56" x2="77.9" y2="28.8"/>
  <line id="R_Hairline_2" data-name="R Hairline 2" class="cls-1" x1="95.7" y1="56.6" x2="94.1" y2="34.1"/>
</svg>